<?xml version="1.0" standalone="no"?>
<svg xmlns="http://www.w3.org/2000/svg" viewBox="0 0 69.5859375 61.227" width="69.5859375" height="61.227"><rect fill="none" stroke="#104273" stroke-width="4" width="65.5859375" height="57.227" x="2" y="2"></rect><path fill="#fe4e01" fill-rule="nonzero" d="M8.48 36.80L8.48 36.80Q6.52 36.80 4.94 35.86Q3.36 34.92 2.25 33.28Q1.13 31.64 0.57 29.43Q0 27.23 0.08 24.73L0.08 24.73Q0.16 22.38 0.68 19.65Q1.21 16.91 2.19 14.16Q3.16 11.41 4.55 8.85Q5.94 6.29 7.73 4.34Q9.53 2.38 11.72 1.19Q13.91 0 16.52 0L16.52 0Q18.13 0 19.24 0.64Q20.35 1.29 21.04 2.34Q21.72 3.40 21.99 4.73Q22.27 6.05 22.23 7.42L22.23 7.42Q22.15 8.71 21.86 9.92Q21.56 11.13 21.04 12.09Q20.51 13.05 19.75 13.61Q18.98 14.18 18.01 14.18L18.01 14.18Q17.54 14.14 17.11 13.87L17.11 13.87Q16.72 13.63 16.31 13.16Q15.90 12.70 15.55 11.80L15.55 11.80Q16.60 11.37 17.21 10.29Q17.81 9.22 18.13 8.05L18.13 8.05Q18.48 6.72 18.59 5.08L18.59 5.08Q18.67 3.48 17.93 2.73Q17.19 1.99 16.25 1.99L16.25 1.99Q14.41 1.99 12.38 3.91Q10.35 5.82 8.61 9.08Q6.88 12.34 5.68 16.68Q4.49 21.02 4.30 25.86L4.30 25.86Q4.22 28.05 4.59 29.57Q4.96 31.09 5.64 32.07Q6.33 33.05 7.19 33.48Q8.05 33.91 8.91 33.91L8.91 33.91Q10.27 33.91 11.48 33.32Q12.70 32.73 13.69 31.88Q14.69 31.02 15.41 30.10Q16.13 29.18 16.52 28.48L16.52 28.48Q16.80 27.97 17.11 27.85Q17.42 27.73 17.66 27.91Q17.89 28.09 17.97 28.46Q18.05 28.83 17.81 29.34L17.81 29.34Q17.15 30.66 16.19 31.99Q15.23 33.32 14.04 34.39Q12.85 35.47 11.45 36.13Q10.04 36.80 8.48 36.80ZM24.80 37.23L24.80 37.23Q23.67 37.23 22.58 36.78Q21.48 36.33 20.63 35.51Q19.77 34.69 19.26 33.50Q18.75 32.30 18.83 30.78L18.83 30.78Q18.95 28.13 19.88 25.86Q20.82 23.59 22.07 21.95Q23.32 20.31 24.61 19.39Q25.90 18.48 26.76 18.48L26.76 18.48Q27.30 18.48 27.75 18.85Q28.20 19.22 28.46 19.79Q28.71 20.35 28.77 21.04Q28.83 21.72 28.59 22.34L28.59 22.34Q28.20 22.07 27.15 22.54Q26.09 23.01 24.96 24.12Q23.83 25.23 22.93 26.88Q22.03 28.52 21.91 30.55L21.91 30.55Q21.84 31.88 22.05 32.81Q22.27 33.75 22.68 34.34Q23.09 34.92 23.61 35.20Q24.14 35.47 24.73 35.47L24.73 35.47Q26.13 35.47 27.30 34.41Q28.48 33.36 29.45 31.46Q30.43 29.57 31.29 26.93Q32.15 24.30 32.93 21.09L32.93 21.09Q33.16 20.12 33.54 18.67Q33.91 17.23 34.34 15.53Q34.77 13.83 35.25 12.01Q35.74 10.20 36.17 8.54Q36.60 6.88 36.99 5.45Q37.38 4.02 37.62 3.13L37.62 3.13Q36.33 3.13 35.04 3.28L35.04 3.28Q33.95 3.40 32.77 3.61Q31.60 3.83 30.82 4.18L30.82 4.18Q30.74 4.14 30.70 3.96Q30.66 3.79 30.63 3.59L30.63 3.59Q30.59 3.36 30.55 3.09L30.55 3.09Q30.51 2.77 30.55 2.46L30.55 2.46Q30.59 2.19 30.63 1.86Q30.66 1.52 30.78 1.17L30.78 1.17Q31.80 0.86 33.14 0.68Q34.49 0.51 35.66 0.43L35.66 0.43Q37.03 0.31 38.48 0.31L38.48 0.31Q39.53 0.31 40.66 0.43L40.66 0.43Q41.64 0.51 42.85 0.66Q44.06 0.82 45.27 1.13L45.27 1.13Q45.55 1.41 45.63 1.76L45.63 1.76Q45.66 1.91 45.66 2.11L45.66 2.11Q45.66 2.42 45.55 2.70L45.55 2.70Q45.47 2.93 45.29 3.18Q45.12 3.44 44.84 3.59L44.84 3.59Q44.41 3.48 43.77 3.42Q43.13 3.36 42.50 3.28L42.50 3.28Q41.80 3.20 41.02 3.16L41.02 3.16L36.88 21.60Q36.72 22.27 36.33 23.69Q35.94 25.12 35.25 26.86Q34.57 28.59 33.61 30.43Q32.66 32.27 31.37 33.77Q30.08 35.27 28.44 36.25Q26.80 37.23 24.80 37.23Z" transform="translate(12 12) scale(1)"></path></svg>